<svg width="49" height="48" viewBox="0 0 49 48" fill="none" xmlns="http://www.w3.org/2000/svg">
<rect x="13.5" y="5" width="32" height="32" rx="16" fill="#E5FCE3"/>
<path d="M41.5 1L11.5 1C9 1 7.5 2.48952 7.5 4.94286M7.5 4.94286C7.5 7.39619 9 9 11.5 9H41.5V47H10.943C9.79536 47 7.5 46.2114 7.5 43.0571C7.5 39.9029 7.5 16.3333 7.5 4.94286ZM41.5 4.94286H12.5" stroke="#22222C" stroke-width="2" stroke-linecap="round" stroke-linejoin="round"/>
<path d="M34.2022 24.5777C34.7626 26.8223 34.5274 29.1919 33.5366 31.2825C32.5458 33.3732 30.8608 35.0556 28.7686 36.0432C26.6764 37.0307 24.3065 37.2623 22.0627 36.6984C19.8189 36.1346 17.8401 34.8101 16.4633 32.9508C15.0866 31.0915 14.3971 28.8123 14.5124 26.5016C14.6277 24.1909 15.5407 21.9917 17.0957 20.2787C18.6507 18.5657 20.7515 17.4448 23.0403 17.1071C25.3291 16.7694 27.6642 17.2357 29.6476 18.4267" stroke="#22222C" stroke-width="2"/>
<path d="M19 25.5L23.5 30L34 19.5" stroke="#22222C" stroke-width="2" stroke-linecap="round"/>
</svg>
