<svg width="49" height="48" viewBox="0 0 49 48" fill="none" xmlns="http://www.w3.org/2000/svg">
<rect opacity="0.16" x="8.5" y="14" width="32" height="32" rx="16" fill="#EF5350"/>
<path d="M38.06 10.42C35.39 13.9 30.44 14.61 30.44 14.61C30.44 14.61 29.83 9.67 32.5 6.19C35.16 2.71 40.11 2 40.11 2C40.11 2 40.73 6.94 38.06 10.42Z" stroke="#22222C" stroke-width="2" stroke-miterlimit="10" stroke-linecap="round" stroke-linejoin="round"/>
<path d="M30.38 18.05C30.38 14.97 28.39 10.75 24.62 7.72998" stroke="#22222C" stroke-width="2" stroke-miterlimit="10" stroke-linecap="round" stroke-linejoin="round"/>
<path d="M12.5 21.5601H5.5C3.84 21.5601 2.5 22.9001 2.5 24.5601C2.5 26.2201 3.84 27.5601 5.5 27.5601H38.5V39.5601H5.5C3.84 39.5601 2.5 38.2201 2.5 36.5601V24.5601" stroke="#22222C" stroke-width="2" stroke-miterlimit="10" stroke-linecap="round" stroke-linejoin="round"/>
<path d="M15.13 24.56C15.83 21.9 17.18 19.46 19.5 18.05C23.84 15.41 27.21 18.05 30.38 18.05C33.55 18.05 36.77 15.66 41.26 18.05C45.73 20.43 47.76 27.21 45.68 34.62C43.74 41.53 38.65 45.56 34.73 45.56C33.11 45.56 31.71 44.41 30.38 44.41C29.05 44.41 27.65 45.56 26.03 45.56C23.97 45.56 21.58 44.44 19.5 42.38" stroke="#22222C" stroke-width="2" stroke-miterlimit="10" stroke-linecap="round" stroke-linejoin="round"/>
<path d="M14.5 33.5601V39.5601" stroke="#22222C" stroke-width="2" stroke-miterlimit="10" stroke-linecap="round" stroke-linejoin="round"/>
<path d="M14.5 33.5601V39.5601" stroke="#22222C" stroke-width="2" stroke-miterlimit="10" stroke-linecap="round" stroke-linejoin="round"/>
<path d="M8.5 33.5601V39.5601" stroke="#22222C" stroke-width="2" stroke-miterlimit="10" stroke-linecap="round" stroke-linejoin="round"/>
<path d="M20.5 33.5601V39.5601" stroke="#22222C" stroke-width="2" stroke-miterlimit="10" stroke-linecap="round" stroke-linejoin="round"/>
<path d="M26.5 33.5601V39.5601" stroke="#22222C" stroke-width="2" stroke-miterlimit="10" stroke-linecap="round" stroke-linejoin="round"/>
<path d="M32.5 33.5601V39.5601" stroke="#22222C" stroke-width="2" stroke-miterlimit="10" stroke-linecap="round" stroke-linejoin="round"/>
</svg>
