<svg width="28" height="30" viewBox="0 0 28 30" fill="none" xmlns="http://www.w3.org/2000/svg">
<g filter="url(#filter0_d_2801_65)">
<path d="M23.41 11.58L14.41 2.58C14.05 2.22 13.55 2 13 2H6C4.9 2 4 2.9 4 4V11C4 11.55 4.22 12.05 4.59 12.42L13.59 21.42C13.95 21.78 14.45 22 15 22C15.55 22 16.05 21.78 16.41 21.41L23.41 14.41C23.78 14.05 24 13.55 24 13C24 12.45 23.77 11.94 23.41 11.58ZM7.5 7C6.67 7 6 6.33 6 5.5C6 4.67 6.67 4 7.5 4C8.33 4 9 4.67 9 5.5C9 6.33 8.33 7 7.5 7Z" fill="white"/>
</g>
<defs>
<filter id="filter0_d_2801_65" x="-2" y="0" width="32" height="32" filterUnits="userSpaceOnUse" color-interpolation-filters="sRGB">
<feFlood flood-opacity="0" result="BackgroundImageFix"/>
<feColorMatrix in="SourceAlpha" type="matrix" values="0 0 0 0 0 0 0 0 0 0 0 0 0 0 0 0 0 0 127 0" result="hardAlpha"/>
<feOffset dy="4"/>
<feGaussianBlur stdDeviation="2"/>
<feComposite in2="hardAlpha" operator="out"/>
<feColorMatrix type="matrix" values="0 0 0 0 0 0 0 0 0 0 0 0 0 0 0 0 0 0 0.25 0"/>
<feBlend mode="normal" in2="BackgroundImageFix" result="effect1_dropShadow_2801_65"/>
<feBlend mode="normal" in="SourceGraphic" in2="effect1_dropShadow_2801_65" result="shape"/>
</filter>
</defs>
</svg>
