<svg width="49" height="48" viewBox="0 0 49 48" fill="none" xmlns="http://www.w3.org/2000/svg">
<rect opacity="0.24" x="15.5" width="32" height="32" rx="16" fill="#C8E6C9"/>
<path d="M36.5 6H40.5C41.6 6 42.5 6.9 42.5 8V45C42.5 46.1 41.6 47 40.5 47H8.5C7.4 47 6.5 46.1 6.5 45V8C6.5 6.9 7.4 6 8.5 6H12.5" stroke="#22222C" stroke-width="2" stroke-miterlimit="10"/>
<path d="M36.5 10H38.5V43H10.5V10H12.5" stroke="#22222C" stroke-width="2" stroke-miterlimit="10"/>
<path d="M31.5 5H28.5C28.5 2.79 26.71 1 24.5 1C22.29 1 20.5 2.79 20.5 5H17.5C15.84 5 14.5 6.34 14.5 8V11H34.5V8C34.5 6.34 33.16 5 31.5 5Z" stroke="#22222C" stroke-width="2" stroke-miterlimit="10"/>
<path d="M24.5 4V6" stroke="#22222C" stroke-width="2" stroke-miterlimit="10"/>
<path d="M15.5 20L17.5 22L21.5 18" stroke="#22222C" stroke-width="2" stroke-miterlimit="10"/>
<path d="M15.5 27L17.5 29L21.5 25" stroke="#22222C" stroke-width="2" stroke-miterlimit="10"/>
<path d="M15.5 34L17.5 36L21.5 32" stroke="#22222C" stroke-width="2" stroke-miterlimit="10"/>
<path d="M24.5 20H33.5" stroke="#22222C" stroke-width="2" stroke-miterlimit="10"/>
<path d="M24.5 27H33.5" stroke="#22222C" stroke-width="2" stroke-miterlimit="10"/>
<path d="M24.5 34H33.5" stroke="#22222C" stroke-width="2" stroke-miterlimit="10"/>
</svg>
