<svg width="49" height="48" viewBox="0 0 49 48" fill="none" xmlns="http://www.w3.org/2000/svg">
<rect opacity="0.24" x="15.5" width="32" height="32" rx="16" fill="#C8E6C9"/>
<path d="M6.22165 17.9731C6.22165 17.9731 4.71385 19.1087 2.70678 20.7768C0.699703 22.4449 1.3887 25.0073 3.31589 27.208C5.93207 30.2025 8.14884 31.8505 13.521 32.8353C17.1357 33.4986 18.5037 33.5689 20.9502 35.4581L22.458 36.8348C23.7461 38.3923 27.6105 41.005 30.0469 41.005C32.4834 41.005 38.4147 41.005 39.7028 41.005C42.6186 41.005 44.366 38.9149 45.4145 37.2568C45.8039 36.6438 46.473 35.3978 46.9223 34.1015" stroke="#22222C" stroke-width="2" stroke-miterlimit="10"/>
<path d="M7.04045 15.873C6.58112 16.5664 6.14176 17.7622 6.03193 18.6666C5.57259 22.3043 11.1045 26.2434 13.4811 27.1076C16.8362 28.3235 20.1314 27.7005 23.2868 31.5592C26.4422 35.418 30.686 36.9755 35.449 36.9755C40.2121 36.9755 44.0864 37.0157 46.0036 35.4783C47.2219 34.2724 48.2004 31.0869 46.8424 30.5443C45.1349 29.861 40.9111 28.9566 38.5146 28.3637C36.807 26.1329 30.5262 16.7573 29.5277 14.3657C28.7488 12.5067 27.8301 12.3057 26.1426 12.9287C24.6348 13.4915 21.779 14.8179 18.9231 12.4564C16.0673 10.095 18.3939 8.36657 16.5566 8.14549C14.7292 7.92442 14.2 7.80384 12.7022 9.17047C11.5139 10.2557 7.49978 15.1897 7.04045 15.873Z" stroke="#22222C" stroke-width="2" stroke-miterlimit="10"/>
<path d="M32.4534 14.8682L26.4621 17.8828" stroke="#22222C" stroke-width="2" stroke-miterlimit="10"/>
<path d="M34.4505 17.8828L28.4592 20.8975" stroke="#22222C" stroke-width="2" stroke-miterlimit="10"/>
<path d="M36.4476 20.8975L30.4563 23.9121" stroke="#22222C" stroke-width="2" stroke-miterlimit="10"/>
<path d="M38.4447 23.9121L32.4534 26.9268" stroke="#22222C" stroke-width="2" stroke-miterlimit="10"/>
</svg>
