<svg width="49" height="48" viewBox="0 0 49 48" fill="none" xmlns="http://www.w3.org/2000/svg">
<rect opacity="0.24" x="16.5" y="5" width="32" height="32" rx="16" fill="#26C6DA"/>
<path d="M34.5 40H10.5C8.84 40 7.5 38.66 7.5 37V12C7.5 10.34 8.84 9 10.5 9H34.5C36.16 9 37.5 10.34 37.5 12V37C37.5 38.66 36.16 40 34.5 40Z" stroke="#22222C" stroke-width="2" stroke-miterlimit="10"/>
<path d="M11.5 9V2C11.5 1.45 11.95 1 12.5 1H32.5C33.05 1 33.5 1.45 33.5 2V9" stroke="#22222C" stroke-width="2" stroke-miterlimit="10"/>
<path d="M33.5 40V46C33.5 46.55 33.05 47 32.5 47H12.5C11.95 47 11.5 46.55 11.5 46V40" stroke="#22222C" stroke-width="2" stroke-miterlimit="10"/>
<path d="M37.5 15H40.5C41.05 15 41.5 15.45 41.5 16V22C41.5 22.55 41.05 23 40.5 23H37.5" stroke="#22222C" stroke-width="2" stroke-miterlimit="10"/>
<path d="M30.48 18.01C28.4 16.41 24.4 16.54 22.5 19.63C20.6 16.54 16.59 16.41 14.52 18.01C12.66 19.44 12.27 21.78 12.62 23.46C13.68 28.57 18.76 30.08 22.51 33.94C26.26 30.08 31.34 28.57 32.4 23.46C32.73 21.79 32.34 19.44 30.48 18.01Z" stroke="#22222C" stroke-width="2" stroke-miterlimit="10"/>
</svg>
