<svg width="49" height="48" viewBox="0 0 49 48" fill="none" xmlns="http://www.w3.org/2000/svg">
<rect opacity="0.24" x="8.5" y="14" width="32" height="32" rx="16" fill="#22222C"/>
<path d="M46.5246 10.0981L31.8155 3.98047L9.57634 12.8922C2.95335 15.9314 0.690417 26.4903 3.93851 32.3138C6.54283 36.9707 12.0148 39.7648 18.3745 42.2844C20.8227 43.255 23.4173 43.1569 25.5534 42.6373C29.972 41.5687 34.0102 38.3726 34.9661 33.3236C35.5611 30.206 34.9856 27.206 33.6103 24.9805L46.5246 17.4903V10.0981Z" stroke="#22222C" stroke-width="2" stroke-miterlimit="10" stroke-linecap="round" stroke-linejoin="round"/>
<path d="M46.5246 10.0981L24.2561 22.0883V22.0785C21.5153 23.4217 19.2816 26.4021 18.5695 30.1766C17.9063 33.6766 19.0182 37.4021 21.1641 39.755" stroke="#22222C" stroke-width="2" stroke-miterlimit="10" stroke-linecap="round"/>
<path d="M12.8732 15.255L20.7349 19.6471L25.5534 17.2158L17.7502 13.2942L12.8732 15.255Z" stroke="#22222C" stroke-width="2" stroke-miterlimit="10" stroke-linecap="round" stroke-linejoin="round"/>
</svg>
